<svg xmlns="http://www.w3.org/2000/svg" version="1.1" xmlns:xlink="http://www.w3.org/1999/xlink" xmlns:svgjs="http://svgjs.com/svgjs" width="800" height="1000" preserveAspectRatio="none" viewBox="0 0 800 1000"><g mask="url(&quot;#SvgjsMask1227&quot;)" fill="none"><rect width="800" height="1000" x="0" y="0" fill="#0e2a47"></rect><g mask="url(&quot;#SvgjsMask1229&quot;)"><path d="M323 513L361 513L399 513M285 513L323 551M437 551L475 513M247 513L285 551M-19 513L19 513L57 513L95 513L133 513L171 513L209 513L247 513L285 513L323 513L361 551L399 551L437 551L475 551L513 551L551 551L589 551L627 551L665 551" stroke="url(#SvgjsLinearGradient1228)" stroke-width="6.33"></path><path d="M655.5 551 a9.5 9.5 0 1 0 19 0 a9.5 9.5 0 1 0 -19 0zM389.5 513 a9.5 9.5 0 1 0 19 0 a9.5 9.5 0 1 0 -19 0zM313.5 551 a9.5 9.5 0 1 0 19 0 a9.5 9.5 0 1 0 -19 0zM465.5 513 a9.5 9.5 0 1 0 19 0 a9.5 9.5 0 1 0 -19 0zM275.5 551 a9.5 9.5 0 1 0 19 0 a9.5 9.5 0 1 0 -19 0z" fill="url(#SvgjsLinearGradient1228)"></path><path d="M475 475L513 475L551 475L589 475L627 437M589 513L627 513L665 513L703 513M665 475L703 437L741 437M247 475L285 437M171 437L209 437M-19 475L19 475L57 475L95 437L133 437L171 437L209 475L247 475L285 475L323 475L361 475L399 475L437 475L475 475L513 513L551 513L589 513L627 475L665 475L703 475" stroke="url(#SvgjsLinearGradient1228)" stroke-width="6.33"></path><path d="M693.5 475 a9.5 9.5 0 1 0 19 0 a9.5 9.5 0 1 0 -19 0zM617.5 437 a9.5 9.5 0 1 0 19 0 a9.5 9.5 0 1 0 -19 0zM693.5 513 a9.5 9.5 0 1 0 19 0 a9.5 9.5 0 1 0 -19 0zM731.5 437 a9.5 9.5 0 1 0 19 0 a9.5 9.5 0 1 0 -19 0zM275.5 437 a9.5 9.5 0 1 0 19 0 a9.5 9.5 0 1 0 -19 0zM199.5 437 a9.5 9.5 0 1 0 19 0 a9.5 9.5 0 1 0 -19 0z" fill="url(#SvgjsLinearGradient1228)"></path><path d="M627 589L665 627L703 665L741 665M551 589L589 627L627 627M399 589L437 627L475 627M209 589L247 551M513 589L551 627M-19 551L19 551L57 551L95 551L133 551L171 551L209 589L247 589L285 589L323 589L361 589L399 589L437 589L475 589L513 589L551 589L589 589L627 589L665 589L703 589" stroke="url(#SvgjsLinearGradient1228)" stroke-width="6.33"></path><path d="M693.5 589 a9.5 9.5 0 1 0 19 0 a9.5 9.5 0 1 0 -19 0zM731.5 665 a9.5 9.5 0 1 0 19 0 a9.5 9.5 0 1 0 -19 0zM617.5 627 a9.5 9.5 0 1 0 19 0 a9.5 9.5 0 1 0 -19 0zM465.5 627 a9.5 9.5 0 1 0 19 0 a9.5 9.5 0 1 0 -19 0zM237.5 551 a9.5 9.5 0 1 0 19 0 a9.5 9.5 0 1 0 -19 0zM541.5 627 a9.5 9.5 0 1 0 19 0 a9.5 9.5 0 1 0 -19 0z" fill="url(#SvgjsLinearGradient1228)"></path><path d="M285 399L323 361M247 399L285 361L323 323L361 323M361 399L399 361M-19 437L19 437L57 437L95 399L133 399L171 399L209 399L247 399L285 399L323 399L361 399L399 399L437 437" stroke="url(#SvgjsLinearGradient1228)" stroke-width="6.33"></path><path d="M427.5 437 a9.5 9.5 0 1 0 19 0 a9.5 9.5 0 1 0 -19 0zM313.5 361 a9.5 9.5 0 1 0 19 0 a9.5 9.5 0 1 0 -19 0zM351.5 323 a9.5 9.5 0 1 0 19 0 a9.5 9.5 0 1 0 -19 0zM389.5 361 a9.5 9.5 0 1 0 19 0 a9.5 9.5 0 1 0 -19 0z" fill="url(#SvgjsLinearGradient1228)"></path><path d="M-19 589L19 589L57 589L95 589L133 589L171 589L209 627L247 627L285 627" stroke="url(#SvgjsLinearGradient1228)" stroke-width="6.33"></path><path d="M275.5 627 a9.5 9.5 0 1 0 19 0 a9.5 9.5 0 1 0 -19 0z" fill="url(#SvgjsLinearGradient1228)"></path><path d="M-19 399L19 399" stroke="url(#SvgjsLinearGradient1228)" stroke-width="6.33"></path><path d="M9.5 399 a9.5 9.5 0 1 0 19 0 a9.5 9.5 0 1 0 -19 0z" fill="url(#SvgjsLinearGradient1228)"></path><path d="M95 627L133 665M19 627L57 665L95 665M-19 627L19 627L57 627L95 627L133 627L171 627" stroke="url(#SvgjsLinearGradient1228)" stroke-width="6.33"></path><path d="M161.5 627 a9.5 9.5 0 1 0 19 0 a9.5 9.5 0 1 0 -19 0zM123.5 665 a9.5 9.5 0 1 0 19 0 a9.5 9.5 0 1 0 -19 0zM85.5 665 a9.5 9.5 0 1 0 19 0 a9.5 9.5 0 1 0 -19 0z" fill="url(#SvgjsLinearGradient1228)"></path><path d="M171 361L209 323L247 323L285 323M-19 361L19 361L57 361L95 361L133 361L171 361L209 361" stroke="url(#SvgjsLinearGradient1228)" stroke-width="6.33"></path><path d="M199.5 361 a9.5 9.5 0 1 0 19 0 a9.5 9.5 0 1 0 -19 0zM275.5 323 a9.5 9.5 0 1 0 19 0 a9.5 9.5 0 1 0 -19 0z" fill="url(#SvgjsLinearGradient1228)"></path><path d="M513 285L551 247L589 247L627 247M437 285L475 247L513 247L551 209M399 285L437 323L475 361M285 285L323 285L361 285M-19 323L19 323L57 323L95 323L133 323L171 285L209 285L247 285L285 285L323 247L361 247L399 285L437 285L475 285L513 285L551 285L589 285" stroke="url(#SvgjsLinearGradient1228)" stroke-width="6.33"></path><path d="M579.5 285 a9.5 9.5 0 1 0 19 0 a9.5 9.5 0 1 0 -19 0zM617.5 247 a9.5 9.5 0 1 0 19 0 a9.5 9.5 0 1 0 -19 0zM541.5 209 a9.5 9.5 0 1 0 19 0 a9.5 9.5 0 1 0 -19 0zM465.5 361 a9.5 9.5 0 1 0 19 0 a9.5 9.5 0 1 0 -19 0zM351.5 285 a9.5 9.5 0 1 0 19 0 a9.5 9.5 0 1 0 -19 0z" fill="url(#SvgjsLinearGradient1228)"></path><path d="M57 703L95 741M285 665L323 703M209 703L247 703L285 703L323 741L361 741M-19 703L19 703L57 703L95 703L133 703L171 703L209 703L247 665L285 665L323 665" stroke="url(#SvgjsLinearGradient1228)" stroke-width="6.33"></path><path d="M313.5 665 a9.5 9.5 0 1 0 19 0 a9.5 9.5 0 1 0 -19 0zM85.5 741 a9.5 9.5 0 1 0 19 0 a9.5 9.5 0 1 0 -19 0zM313.5 703 a9.5 9.5 0 1 0 19 0 a9.5 9.5 0 1 0 -19 0zM351.5 741 a9.5 9.5 0 1 0 19 0 a9.5 9.5 0 1 0 -19 0z" fill="url(#SvgjsLinearGradient1228)"></path><path d="M209 247L247 209L285 209M95 285L133 247M171 247L209 209L247 171L285 171M-19 285L19 285L57 285L95 285L133 285L171 247L209 247L247 247L285 247L323 209" stroke="url(#SvgjsLinearGradient1228)" stroke-width="6.33"></path><path d="M313.5 209 a9.5 9.5 0 1 0 19 0 a9.5 9.5 0 1 0 -19 0zM275.5 209 a9.5 9.5 0 1 0 19 0 a9.5 9.5 0 1 0 -19 0zM123.5 247 a9.5 9.5 0 1 0 19 0 a9.5 9.5 0 1 0 -19 0zM275.5 171 a9.5 9.5 0 1 0 19 0 a9.5 9.5 0 1 0 -19 0z" fill="url(#SvgjsLinearGradient1228)"></path></g></g><defs><mask id="SvgjsMask1227"><rect width="800" height="1000" fill="#ffffff"></rect></mask><linearGradient x1="0" y1="500" x2="800" y2="500" gradientUnits="userSpaceOnUse" id="SvgjsLinearGradient1228"><stop stop-color="#3a7cc3" offset="0"></stop><stop stop-color="#dd1133" offset="1"></stop></linearGradient><mask id="SvgjsMask1229"><rect width="800" height="1000" fill="white"></rect><path d="M660.25 551 a4.75 4.75 0 1 0 9.5 0 a4.75 4.75 0 1 0 -9.5 0zM394.25 513 a4.75 4.75 0 1 0 9.5 0 a4.75 4.75 0 1 0 -9.5 0zM318.25 551 a4.75 4.75 0 1 0 9.5 0 a4.75 4.75 0 1 0 -9.5 0zM470.25 513 a4.75 4.75 0 1 0 9.5 0 a4.75 4.75 0 1 0 -9.5 0zM280.25 551 a4.75 4.75 0 1 0 9.5 0 a4.75 4.75 0 1 0 -9.5 0z" fill="black"></path><path d="M698.25 475 a4.75 4.75 0 1 0 9.5 0 a4.75 4.75 0 1 0 -9.5 0zM622.25 437 a4.75 4.75 0 1 0 9.5 0 a4.75 4.75 0 1 0 -9.5 0zM698.25 513 a4.75 4.75 0 1 0 9.5 0 a4.75 4.75 0 1 0 -9.5 0zM736.25 437 a4.75 4.75 0 1 0 9.5 0 a4.75 4.75 0 1 0 -9.5 0zM280.25 437 a4.75 4.75 0 1 0 9.5 0 a4.75 4.75 0 1 0 -9.5 0zM204.25 437 a4.75 4.75 0 1 0 9.5 0 a4.75 4.75 0 1 0 -9.5 0z" fill="black"></path><path d="M698.25 589 a4.75 4.75 0 1 0 9.5 0 a4.75 4.75 0 1 0 -9.5 0zM736.25 665 a4.75 4.75 0 1 0 9.5 0 a4.75 4.75 0 1 0 -9.5 0zM622.25 627 a4.75 4.75 0 1 0 9.5 0 a4.75 4.75 0 1 0 -9.5 0zM470.25 627 a4.75 4.75 0 1 0 9.5 0 a4.75 4.75 0 1 0 -9.5 0zM242.25 551 a4.75 4.75 0 1 0 9.5 0 a4.75 4.75 0 1 0 -9.5 0zM546.25 627 a4.75 4.75 0 1 0 9.5 0 a4.75 4.75 0 1 0 -9.5 0z" fill="black"></path><path d="M432.25 437 a4.75 4.75 0 1 0 9.5 0 a4.75 4.75 0 1 0 -9.5 0zM318.25 361 a4.75 4.75 0 1 0 9.5 0 a4.75 4.75 0 1 0 -9.5 0zM356.25 323 a4.75 4.75 0 1 0 9.5 0 a4.75 4.75 0 1 0 -9.5 0zM394.25 361 a4.75 4.75 0 1 0 9.5 0 a4.75 4.75 0 1 0 -9.5 0z" fill="black"></path><path d="M280.25 627 a4.75 4.75 0 1 0 9.5 0 a4.75 4.75 0 1 0 -9.5 0z" fill="black"></path><path d="M14.25 399 a4.75 4.75 0 1 0 9.5 0 a4.75 4.75 0 1 0 -9.5 0z" fill="black"></path><path d="M166.25 627 a4.75 4.75 0 1 0 9.5 0 a4.75 4.75 0 1 0 -9.5 0zM128.25 665 a4.75 4.75 0 1 0 9.5 0 a4.75 4.75 0 1 0 -9.5 0zM90.25 665 a4.75 4.75 0 1 0 9.5 0 a4.75 4.75 0 1 0 -9.5 0z" fill="black"></path><path d="M204.25 361 a4.75 4.75 0 1 0 9.5 0 a4.75 4.75 0 1 0 -9.5 0zM280.25 323 a4.75 4.75 0 1 0 9.5 0 a4.75 4.75 0 1 0 -9.5 0z" fill="black"></path><path d="M584.25 285 a4.75 4.75 0 1 0 9.5 0 a4.75 4.75 0 1 0 -9.5 0zM622.25 247 a4.75 4.75 0 1 0 9.5 0 a4.75 4.75 0 1 0 -9.5 0zM546.25 209 a4.75 4.75 0 1 0 9.5 0 a4.75 4.75 0 1 0 -9.5 0zM470.25 361 a4.75 4.75 0 1 0 9.5 0 a4.75 4.75 0 1 0 -9.5 0zM356.25 285 a4.75 4.75 0 1 0 9.5 0 a4.75 4.75 0 1 0 -9.5 0z" fill="black"></path><path d="M318.25 665 a4.75 4.75 0 1 0 9.5 0 a4.75 4.75 0 1 0 -9.5 0zM90.25 741 a4.75 4.75 0 1 0 9.5 0 a4.75 4.75 0 1 0 -9.5 0zM318.25 703 a4.75 4.75 0 1 0 9.5 0 a4.75 4.75 0 1 0 -9.5 0zM356.25 741 a4.75 4.75 0 1 0 9.5 0 a4.75 4.75 0 1 0 -9.5 0z" fill="black"></path><path d="M318.25 209 a4.75 4.75 0 1 0 9.5 0 a4.75 4.75 0 1 0 -9.5 0zM280.25 209 a4.75 4.75 0 1 0 9.5 0 a4.75 4.75 0 1 0 -9.5 0zM128.25 247 a4.75 4.75 0 1 0 9.5 0 a4.75 4.75 0 1 0 -9.5 0zM280.25 171 a4.75 4.75 0 1 0 9.5 0 a4.75 4.75 0 1 0 -9.5 0z" fill="black"></path></mask></defs></svg>